<svg width="28" height="24" viewBox="0 0 28 24" fill="none" xmlns="http://www.w3.org/2000/svg">
<path d="M8.75973 21.5438C12.0955 21.5438 14.7997 17.2637 14.7997 11.9838C14.7997 6.70399 12.0955 2.42383 8.75973 2.42383C5.42393 2.42383 2.71973 6.70399 2.71973 11.9838C2.71973 17.2637 5.42393 21.5438 8.75973 21.5438Z" stroke="black" stroke-width="1.5" stroke-miterlimit="10"/>
<path d="M19.3193 1.66602C21.3353 1.66602 23.0508 2.95758 24.2246 4.81543C25.4043 6.68272 26.1093 9.21618 26.1094 11.9756C26.1094 14.7352 25.4044 17.2693 24.2246 19.1367C23.0508 20.9945 21.3353 22.2861 19.3193 22.2861C17.4498 22.286 15.8502 21.19 14.6816 19.5361C14.7718 19.4084 14.8607 19.2784 14.9453 19.1445C15.1562 18.8108 15.3501 18.4549 15.5293 18.0811C16.5436 19.825 17.9252 20.786 19.3193 20.7861C20.6394 20.7861 21.9438 19.9371 22.9561 18.335C23.9622 16.7424 24.6094 14.4959 24.6094 11.9756C24.6093 9.45534 23.9622 7.20873 22.9561 5.61621C21.9439 4.01438 20.6393 3.16602 19.3193 3.16602C17.9285 3.16612 16.5413 4.12908 15.5264 5.87891C15.3481 5.50784 15.1548 5.15477 14.9453 4.82324C14.8593 4.68709 14.7695 4.55459 14.6777 4.4248C15.8475 2.76533 17.4517 1.6661 19.3193 1.66602ZM13.8311 5.88086C14.7479 7.45389 15.33 9.59554 15.3301 11.9834C15.3301 14.369 14.7484 16.5084 13.833 18.0811C13.6924 17.7891 13.5603 17.4889 13.4424 17.1797L13.3496 16.9355L13.4287 16.6865C13.8765 15.2671 14.1299 13.6554 14.1299 11.9443C14.1299 10.2395 13.8835 8.64287 13.4434 7.23145L13.3662 6.98242L13.459 6.73926C13.5718 6.44516 13.6975 6.15919 13.8311 5.88086Z" fill="black"/>
<path d="M12.24 15.808C13.4771 15.808 14.48 14.0995 14.48 11.992C14.48 9.88451 13.4771 8.17603 12.24 8.17603C11.0029 8.17603 10 9.88451 10 11.992C10 14.0995 11.0029 15.808 12.24 15.808Z" fill="black"/>
<path d="M22.7595 15.808C23.9966 15.808 24.9995 14.0995 24.9995 11.992C24.9995 9.88451 23.9966 8.17603 22.7595 8.17603C21.5224 8.17603 20.5195 9.88451 20.5195 11.992C20.5195 14.0995 21.5224 15.808 22.7595 15.808Z" fill="black"/>
</svg>
