<svg width="65" height="65" viewBox="0 0 65 65" fill="none" xmlns="http://www.w3.org/2000/svg">
<path d="M21.8261 25.9871C21.8261 23.7641 21.8261 21.5411 21.8261 19.3181C21.8261 18.1611 21.8521 17.0041 21.8261 15.8601C21.8261 15.6521 21.8001 15.7301 21.8001 15.8081C21.8131 15.7171 21.8391 15.6261 21.8651 15.5351C21.9041 15.3531 21.9561 15.1711 22.0081 14.9891C22.1251 14.5731 22.2681 14.1701 22.4241 13.7671C22.5021 13.5591 22.4111 13.7801 22.3981 13.8061C22.4371 13.7281 22.4761 13.6371 22.5151 13.5591C22.6061 13.3641 22.6971 13.1821 22.7881 12.9871C22.9701 12.6361 23.1651 12.2981 23.3731 11.9731C23.4641 11.8171 23.5681 11.6741 23.6721 11.5311C23.7241 11.4531 24.0491 11.0111 23.8411 11.2841C24.0751 10.9851 24.3351 10.6861 24.5951 10.4131C24.8551 10.1401 25.1281 9.86712 25.4141 9.60712C25.5441 9.49012 25.6871 9.37312 25.8171 9.25612C25.8301 9.24312 26.0641 9.06112 25.8951 9.19112C25.7131 9.33412 26.0901 9.04812 26.1161 9.02212C26.7401 8.58012 27.3901 8.19012 28.0791 7.85212C28.1831 7.80012 28.5601 7.63112 28.2611 7.76112C28.4301 7.69612 28.5861 7.63112 28.7551 7.56612C29.1451 7.42312 29.5351 7.30612 29.9381 7.20212C30.3151 7.11112 30.6921 7.03312 31.0691 6.96812C31.3031 6.92912 31.0301 6.96812 30.9911 6.96812C31.0821 6.95512 31.1731 6.94212 31.2641 6.94212C31.4721 6.91612 31.6801 6.90312 31.9011 6.89012C32.2911 6.86412 32.6811 6.86412 33.0711 6.89012C33.2531 6.90312 33.4351 6.91612 33.6041 6.92912C33.7211 6.94212 34.2541 7.02012 33.8771 6.95512C34.6571 7.08512 35.4371 7.26712 36.1911 7.54012C36.3601 7.60512 36.5161 7.65712 36.6851 7.72212C36.8931 7.80012 36.6591 7.70912 36.6201 7.69612C36.6981 7.73512 36.7761 7.77412 36.8541 7.80012C37.2311 7.96912 37.5821 8.16412 37.9461 8.37212C38.2451 8.55412 38.5441 8.73612 38.8301 8.94412C38.9081 8.99612 39.3371 9.32112 39.0641 9.11312C39.2201 9.24312 39.3761 9.37312 39.5321 9.50312C40.1041 10.0101 40.6371 10.5561 41.1181 11.1541C41.2611 11.3231 41.1051 11.1411 41.0921 11.1021C41.1701 11.1931 41.2351 11.2971 41.3001 11.3881C41.4041 11.5311 41.5081 11.6741 41.5991 11.8301C41.8331 12.1811 42.0411 12.5451 42.2361 12.9091C42.3401 13.0911 42.4311 13.2861 42.5221 13.4811C42.5611 13.5591 42.6001 13.6501 42.6391 13.7281C42.5611 13.5461 42.6001 13.6241 42.6521 13.7671C42.8211 14.1961 42.9641 14.6251 43.0941 15.0801C43.3801 16.1201 43.3021 16.8871 43.3021 18.0701C43.3021 20.6571 43.3021 23.2441 43.3021 25.8441C43.3021 26.8581 44.1991 27.8461 45.2521 27.7941C46.3051 27.7421 47.2021 26.9361 47.2021 25.8441C47.2021 23.3871 47.2021 20.9171 47.2021 18.4601C47.2021 17.1991 47.3061 15.9121 47.0201 14.6641C46.7991 13.7151 46.4741 12.8181 46.0841 11.9211C44.6671 8.64512 41.9371 5.82412 38.6611 4.35512C35.2421 2.82112 31.3421 2.49612 27.7801 3.77012C24.3091 5.03112 21.3191 7.51412 19.5381 10.7771C19.0181 11.7261 18.6021 12.7401 18.2901 13.7671C17.9001 15.0541 17.9261 16.3151 17.9261 17.6411C17.9261 20.4231 17.9261 23.2051 17.9261 25.9741C17.9261 26.9881 18.8231 27.9761 19.8761 27.9241C20.9291 27.8851 21.8261 27.0791 21.8261 25.9871Z" fill="black"/>
<path d="M11.0486 24.0112C22.2416 24.0112 33.4346 24.0112 44.6406 24.0112C47.7996 24.0112 50.9456 24.0112 54.1046 24.0112C53.4546 23.3612 52.8046 22.7112 52.1546 22.0612C52.5186 30.0692 52.8826 38.0642 53.2466 46.0722C53.3376 48.0482 53.4286 50.0242 53.5196 52.0132C53.5586 52.9622 53.6106 53.9112 53.6496 54.8472C53.6756 55.3022 53.6756 55.7572 53.7016 56.2122C53.7276 56.6282 53.6236 56.0952 53.7276 56.1082C53.7406 56.1082 53.6366 56.5372 53.6366 56.5372C53.6236 56.5762 53.4416 57.0832 53.5846 56.7582C53.5066 56.9402 53.3896 57.1482 53.2726 57.3042C53.3116 57.2392 52.6876 57.8502 52.9346 57.6552C52.7916 57.7592 52.6226 57.8372 52.4796 57.9282C52.0636 58.2012 52.8046 57.8632 52.3886 57.9802C52.1676 58.0452 51.9596 58.1232 51.7256 58.1622C51.6866 58.1622 52.2326 58.1882 51.6346 58.1102C51.3876 58.0842 51.1016 58.1102 50.8546 58.1102C50.3346 58.1102 49.8146 58.1102 49.2946 58.1102C48.2546 58.1102 47.2276 58.1102 46.1876 58.1102C38.2446 58.1102 30.3016 58.1102 22.3456 58.1102C20.3566 58.1102 18.3676 58.1102 16.3916 58.1102C15.8716 58.1102 15.3516 58.1102 14.8316 58.1102C14.4026 58.1102 13.8176 58.0062 13.4016 58.1102C13.0506 58.2012 13.6356 58.2012 13.3626 58.1492C13.2456 58.1232 13.1416 58.0972 13.0246 58.0582C12.9466 58.0322 12.5306 57.8502 12.9206 58.0322C12.7256 57.9412 12.5306 57.8372 12.3486 57.7202C12.0626 57.5382 12.6346 58.0192 12.1536 57.5772C12.1926 57.6162 11.6856 57.0962 11.8676 57.3042C11.7376 57.1482 11.6466 56.9662 11.5426 56.7972C11.5036 56.7322 11.3086 56.1992 11.4516 56.6282C11.3866 56.4202 11.3086 56.2122 11.2696 55.9912C11.2176 55.6792 11.3346 55.9392 11.3086 56.0042C11.4256 55.7702 11.3476 55.2242 11.3606 54.9642C11.4646 52.9752 11.5556 50.9862 11.6596 48.9972C12.1016 40.0142 12.5436 31.0182 12.9856 22.0352C13.0376 21.0212 12.0496 20.0332 11.0356 20.0852C9.93062 20.1372 9.13762 20.9432 9.08562 22.0352C8.66962 30.4982 8.25362 38.9742 7.83762 47.4372C7.73362 49.5172 7.62962 51.5842 7.52562 53.6642C7.47362 54.7042 7.29162 55.8222 7.47362 56.8492C7.59062 57.5122 7.85062 58.1622 8.17562 58.7602C9.03362 60.3332 10.6456 61.5422 12.4006 61.9062C13.3366 62.1012 14.3766 61.9972 15.3256 61.9972C16.4436 61.9972 17.5746 61.9972 18.6926 61.9972C27.0646 61.9972 35.4496 61.9972 43.8216 61.9972C45.9796 61.9972 48.1376 61.9972 50.2956 61.9972C51.9596 61.9972 53.4286 61.9972 54.8586 61.0092C56.4186 59.9432 57.4716 58.1752 57.5496 56.2642C57.5886 55.3542 57.4846 54.4312 57.4456 53.5342C57.3936 52.4162 57.3416 51.2982 57.2896 50.1802C56.8606 40.7942 56.4446 31.4212 56.0156 22.0352C55.9636 20.9822 55.1576 20.0852 54.0656 20.0852C42.8726 20.0852 31.6796 20.0852 20.4736 20.0852C17.3146 20.0852 14.1686 20.0852 11.0096 20.0852C9.99562 20.0852 9.00762 20.9822 9.05962 22.0352C9.13762 23.1142 9.94362 24.0112 11.0486 24.0112Z" fill="black"/>
</svg>
